<?xml version="1.0" standalone="no"?>
<!DOCTYPE svg PUBLIC "-//W3C//DTD SVG 20010904//EN"
 "http://www.w3.org/TR/2001/REC-SVG-20010904/DTD/svg10.dtd">
<svg version="1.0" xmlns="http://www.w3.org/2000/svg"
 width="819.000000pt" height="426.000000pt" viewBox="0 0 819.000000 426.000000"
 preserveAspectRatio="xMidYMid meet">

<g transform="translate(0.000000,426.000000) scale(0.100000,-0.100000)"
fill="#0f172a" stroke="none">
<path d="M6890 4203 c-785 -44 -965 -59 -1305 -108 -839 -123 -1652 -347
-2370 -652 -136 -58 -503 -238 -640 -315 -173 -97 -266 -151 -262 -154 2 -2
100 35 218 82 860 345 1415 502 2334 663 94 17 211 37 260 46 634 111 1446
177 2390 193 l410 7 -180 22 c-358 45 -562 55 -940 50 -359 -6 -405 -9 -800
-52 -228 -25 -358 -43 -674 -91 -90 -14 -165 -24 -167 -22 -2 3 72 19 164 37
92 18 187 36 212 41 154 31 751 133 1075 185 271 43 387 63 393 70 3 3 -10 4
-29 3 -19 -1 -59 -3 -89 -5z"/>
<path d="M6850 4120 c0 -5 5 -10 11 -10 5 0 7 5 4 10 -3 6 -8 10 -11 10 -2 0
-4 -4 -4 -10z"/>
<path d="M7180 4100 c0 -5 7 -10 15 -10 8 0 15 5 15 10 0 6 -7 10 -15 10 -8 0
-15 -4 -15 -10z"/>
<path d="M7660 3840 c0 -5 5 -10 10 -10 6 0 10 5 10 10 0 6 -4 10 -10 10 -5 0
-10 -4 -10 -10z"/>
<path d="M6712 3813 c2 -10 10 -18 18 -18 8 0 16 8 18 18 2 12 -3 17 -18 17
-15 0 -20 -5 -18 -17z"/>
<path d="M7305 3810 c-3 -5 -1 -10 4 -10 6 0 11 5 11 10 0 6 -2 10 -4 10 -3 0
-8 -4 -11 -10z"/>
<path d="M6200 3790 c0 -5 5 -10 10 -10 6 0 10 5 10 10 0 6 -4 10 -10 10 -5 0
-10 -4 -10 -10z"/>
<path d="M5825 3770 c3 -5 8 -10 11 -10 2 0 4 5 4 10 0 6 -5 10 -11 10 -5 0
-7 -4 -4 -10z"/>
<path d="M6940 3760 c0 -11 7 -20 15 -20 8 0 15 9 15 20 0 11 -7 20 -15 20 -8
0 -15 -9 -15 -20z"/>
<path d="M5495 3740 c-4 -6 -3 -16 3 -22 6 -6 12 -6 17 2 4 6 3 16 -3 22 -6 6
-12 6 -17 -2z"/>
<path d="M7471 3741 c-15 -10 -8 -41 9 -41 15 0 25 29 14 40 -5 5 -15 5 -23 1z"/>
<path d="M7840 3740 c0 -5 5 -10 10 -10 6 0 10 5 10 10 0 6 -4 10 -10 10 -5 0
-10 -4 -10 -10z"/>
<path d="M5270 3695 c0 -8 5 -15 10 -15 6 0 10 7 10 15 0 8 -4 15 -10 15 -5 0
-10 -7 -10 -15z"/>
<path d="M5963 3673 c-18 -6 -16 -33 1 -33 19 0 31 19 20 30 -5 4 -15 5 -21 3z"/>
<path d="M6503 3664 c-7 -18 11 -39 26 -30 17 11 13 46 -4 46 -9 0 -18 -7 -22
-16z"/>
<path d="M5703 3658 c2 -7 10 -13 17 -13 7 0 15 6 18 13 2 7 -5 12 -18 12 -13
0 -20 -5 -17 -12z"/>
<path d="M7730 3660 c0 -5 5 -10 10 -10 6 0 10 5 10 10 0 6 -4 10 -10 10 -5 0
-10 -4 -10 -10z"/>
<path d="M6798 3638 c-7 -19 2 -38 17 -38 15 0 28 27 19 41 -8 13 -31 11 -36
-3z"/>
<path d="M4860 3624 c-339 -33 -773 -104 -1070 -175 -289 -70 -679 -195 -990
-319 -140 -55 -398 -181 -383 -187 6 -2 141 39 300 91 364 120 539 172 828
246 418 106 1009 231 1425 300 129 21 246 43 260 49 37 14 -203 12 -370 -5z"/>
<path d="M5370 3620 c0 -5 5 -10 10 -10 6 0 10 5 10 10 0 6 -4 10 -10 10 -5 0
-10 -4 -10 -10z"/>
<path d="M6275 3620 c-3 -5 -1 -10 4 -10 6 0 11 5 11 10 0 6 -2 10 -4 10 -3 0
-8 -4 -11 -10z"/>
<path d="M5275 3564 c-22 -2 -110 -11 -195 -20 -812 -82 -1696 -289 -2275
-532 -118 -50 -308 -142 -303 -147 2 -3 96 20 209 49 526 140 693 180 1034
250 591 121 1341 218 2000 260 293 18 920 19 1270 1 160 -8 310 -14 335 -14
l45 1 -60 14 c-168 37 -574 90 -925 120 -174 14 -1035 28 -1135 18z"/>
<path d="M7260 3540 c0 -5 5 -10 10 -10 6 0 10 5 10 10 0 6 -4 10 -10 10 -5 0
-10 -4 -10 -10z"/>
<path d="M7540 3471 c0 -27 19 -36 37 -18 18 18 9 37 -18 37 -12 0 -19 -7 -19
-19z"/>
<path d="M5570 3350 c-91 -10 -309 -32 -485 -50 -730 -72 -1179 -143 -1667
-266 -182 -45 -501 -139 -528 -155 -27 -16 29 -10 371 36 965 131 1654 168
2512 135 280 -11 355 -10 245 5 -29 4 -150 27 -268 51 -118 25 -253 52 -300
60 -47 9 -89 19 -93 23 -15 15 80 33 152 29 69 -3 72 -2 67 18 -7 28 12 45
107 89 42 21 77 39 77 41 0 5 15 6 -190 -16z"/>
<path d="M5952 3323 c2 -10 10 -18 18 -18 8 0 16 8 18 18 2 12 -3 17 -18 17
-15 0 -20 -5 -18 -17z"/>
<path d="M6340 3330 c0 -5 5 -10 10 -10 6 0 10 5 10 10 0 6 -4 10 -10 10 -5 0
-10 -4 -10 -10z"/>
<path d="M1110 3325 c-8 -2 -49 -9 -90 -15 -216 -35 -471 -171 -640 -340 -172
-171 -279 -375 -341 -647 -18 -78 -22 -129 -23 -253 0 -219 34 -374 124 -567
162 -347 504 -602 904 -673 90 -15 311 -12 407 6 142 27 312 94 433 172 43 28
196 152 196 159 0 5 -56 -28 -100 -58 -53 -36 -209 -108 -298 -138 -173 -58
-278 -74 -452 -68 -178 6 -300 32 -433 94 -105 49 -116 67 -22 37 105 -33 232
-54 330 -54 200 0 603 44 628 69 15 14 -278 34 -548 36 -148 2 -301 8 -340 14
-226 37 -472 171 -567 308 l-30 44 69 -47 c330 -228 709 -227 962 1 62 57 52
73 -16 27 -133 -88 -292 -129 -468 -118 -293 17 -535 159 -646 377 -30 60 -73
179 -66 185 2 2 18 -18 36 -46 110 -169 330 -327 509 -365 84 -17 158 -19 257
-5 143 21 138 32 -17 35 -193 4 -374 60 -496 152 -132 100 -235 273 -262 441
-4 23 -3 42 2 42 4 0 8 -6 8 -14 0 -27 61 -150 105 -212 71 -99 185 -197 289
-249 107 -53 345 -119 311 -86 -6 5 -45 18 -88 30 -43 12 -112 39 -155 62 -42
22 -68 37 -57 33 121 -43 168 -57 236 -67 57 -8 82 -8 90 0 8 8 -9 14 -63 23
-262 44 -460 185 -569 405 -58 118 -84 292 -60 400 6 25 9 17 20 -48 42 -257
181 -448 408 -561 75 -37 173 -70 182 -60 3 4 0 9 -8 12 -8 3 -56 25 -105 50
-73 37 -108 62 -177 132 -73 72 -94 101 -132 180 -56 117 -77 210 -77 337 0
172 50 310 148 413 l53 55 -41 -83 c-57 -115 -82 -230 -82 -367 0 -178 45
-317 146 -453 43 -58 134 -135 199 -168 44 -23 31 -1 -23 39 -105 79 -212 240
-239 362 -15 69 -20 268 -6 254 2 -3 11 -39 19 -80 37 -193 133 -356 264 -448
33 -23 33 -23 21 -2 -8 11 -16 21 -20 21 -13 0 -111 132 -138 187 -76 153 -96
357 -52 526 58 221 220 397 430 466 84 27 86 26 22 -9 -241 -133 -401 -398
-401 -665 0 -105 21 -191 70 -284 35 -65 90 -141 104 -141 2 0 -13 33 -34 74
-46 93 -64 174 -64 296 0 111 14 178 59 276 193 422 677 573 1130 353 75 -36
261 -166 252 -175 -2 -3 -38 12 -79 31 -57 27 -96 38 -167 46 -198 22 -361
-33 -541 -183 -47 -39 -112 -83 -144 -99 -33 -16 -68 -37 -79 -46 -21 -19 -67
-109 -67 -130 0 -24 16 -13 38 25 34 62 49 70 149 81 51 5 103 15 115 22 13 6
54 45 91 85 53 57 78 76 110 85 23 6 73 24 110 40 127 54 318 63 441 20 60
-21 85 -22 47 -1 -12 6 -19 15 -16 19 6 11 -103 119 -178 174 -120 89 -321
172 -492 201 -77 14 -268 20 -315 11z"/>
<path d="M7150 3260 c0 -5 5 -10 10 -10 6 0 10 5 10 10 0 6 -4 10 -10 10 -5 0
-10 -4 -10 -10z"/>
<path d="M6524 3235 c-4 -9 -2 -21 4 -27 15 -15 44 -1 40 19 -4 23 -36 29 -44
8z"/>
<path d="M5782 3219 c2 -6 8 -10 13 -10 5 0 11 4 13 10 2 6 -4 11 -13 11 -9 0
-15 -5 -13 -11z"/>
<path d="M6882 3208 c5 -15 28 -18 29 -3 0 6 -7 12 -17 13 -10 3 -15 -1 -12
-10z"/>
<path d="M6027 3204 c-9 -9 4 -34 18 -34 11 0 25 20 25 36 0 6 -36 5 -43 -2z"/>
<path d="M6234 3195 c-9 -23 10 -40 25 -22 9 11 8 17 -4 27 -12 10 -16 9 -21
-5z"/>
<path d="M7660 3185 c0 -8 5 -15 10 -15 6 0 10 7 10 15 0 8 -4 15 -10 15 -5 0
-10 -7 -10 -15z"/>
<path d="M1295 3146 c-329 -63 -558 -306 -582 -616 -6 -84 9 -213 31 -262 14
-32 15 -31 8 27 -4 33 -7 103 -6 155 0 105 23 193 70 265 14 22 23 31 19 20
-35 -109 -44 -241 -24 -351 17 -92 25 -83 21 23 -6 119 8 184 59 289 98 201
311 351 539 380 36 4 68 9 73 10 4 1 69 2 145 3 149 2 153 6 31 41 -95 27
-285 35 -384 16z"/>
<path d="M7364 3119 c-8 -14 11 -33 25 -25 6 4 11 14 11 22 0 16 -26 19 -36 3z"/>
<path d="M6980 3060 c0 -5 5 -10 11 -10 5 0 7 5 4 10 -3 6 -8 10 -11 10 -2 0
-4 -4 -4 -10z"/>
<path d="M6387 3054 c-14 -14 -7 -35 11 -32 9 2 17 10 17 17 0 16 -18 25 -28
15z"/>
<path d="M6692 3038 c2 -12 10 -23 18 -23 22 0 19 39 -3 43 -15 3 -18 -1 -15
-20z"/>
<path d="M7510 3040 c0 -5 5 -10 10 -10 6 0 10 5 10 10 0 6 -4 10 -10 10 -5 0
-10 -4 -10 -10z"/>
<path d="M7165 3020 c-8 -13 3 -30 20 -30 14 0 27 24 18 34 -10 9 -31 7 -38
-4z"/>
<path d="M1245 2962 c-132 -70 -230 -164 -282 -270 -31 -62 -37 -86 -41 -158
-3 -56 -1 -89 7 -97 8 -8 11 -2 11 24 0 46 25 140 51 190 28 56 80 110 214
224 102 87 138 126 117 125 -4 0 -39 -17 -77 -38z"/>
<path d="M4635 2994 c-22 -2 -112 -8 -200 -14 -289 -19 -666 -60 -860 -93
-168 -28 -130 -32 190 -17 138 6 345 15 460 20 469 22 1677 10 2145 -20 80 -5
195 -12 255 -14 l110 -5 -140 24 c-225 39 -363 55 -880 101 -159 14 -976 28
-1080 18z"/>
<path d="M7390 2870 c0 -5 5 -10 10 -10 6 0 10 5 10 10 0 6 -4 10 -10 10 -5 0
-10 -4 -10 -10z"/>
<path d="M1748 2640 c-63 -11 -146 -50 -189 -88 -19 -17 -48 -55 -65 -84 -27
-49 -29 -60 -29 -158 0 -89 3 -111 22 -145 44 -82 129 -141 288 -198 152 -54
184 -79 173 -134 -12 -62 -218 -44 -355 31 l-41 23 -50 -116 c-27 -64 -47
-120 -44 -125 10 -17 148 -74 219 -90 40 -9 112 -16 160 -16 259 0 413 128
413 344 0 170 -69 250 -290 336 -199 77 -217 89 -206 133 13 53 107 61 237 21
126 -38 116 -43 160 70 21 55 39 106 39 113 0 50 -307 108 -442 83z"/>
<path d="M2461 2100 l-1 -530 145 0 145 0 1 103 c1 56 1 110 0 119 -2 14 51
127 78 167 7 11 35 -38 110 -187 l101 -202 170 0 c94 0 170 2 170 4 0 3 -26
51 -58 108 -32 57 -82 148 -112 203 -29 55 -75 139 -102 187 -43 77 -48 90
-37 110 16 31 122 209 198 333 33 55 61 103 61 108 0 4 -69 7 -154 7 l-154 0
-73 -122 c-40 -68 -99 -163 -131 -213 l-58 -90 -2 210 -3 210 -146 3 -146 3
-2 -531z"/>
<path d="M3412 2623 c1 -5 74 -148 161 -320 l157 -312 0 -211 0 -210 150 0
150 0 0 216 0 215 114 217 c62 119 136 259 165 310 28 50 51 94 51 97 0 3 -69
5 -153 5 l-154 0 -36 -77 c-19 -43 -54 -121 -78 -173 -23 -52 -45 -98 -48
-102 -3 -4 -42 73 -87 170 l-80 177 -158 3 c-87 1 -156 -1 -154 -5z"/>
<path d="M4517 2623 c-4 -3 -7 -242 -7 -530 l0 -523 365 0 365 0 0 125 0 125
-217 2 -218 3 -3 403 -2 402 -138 0 c-76 0 -142 -3 -145 -7z"/>
<path d="M5460 2100 l0 -531 143 3 c78 2 141 6 140 11 -2 4 -3 241 -3 527 l0
520 -140 0 -140 0 0 -530z"/>
<path d="M6030 2123 c0 -280 -3 -518 -6 -530 l-6 -23 146 0 146 0 2 271 3 271
54 -79 c30 -43 118 -165 195 -270 l141 -193 143 0 142 0 1 298 c0 283 0 723
-1 750 0 10 -31 12 -137 10 l-138 -3 0 -278 c0 -152 -3 -276 -7 -275 -7 3
-204 271 -360 491 l-48 67 -135 0 -135 0 0 -507z"/>
<path d="M7290 2100 l0 -530 365 0 365 0 0 125 0 125 -225 0 -225 0 0 80 0 80
190 0 190 0 0 125 0 125 -184 0 -185 0 -6 43 c-4 24 -5 56 -3 73 l3 29 215 5
215 5 3 123 3 122 -361 0 -360 0 0 -530z"/>
<path d="M1130 1480 c-81 -36 -248 -80 -303 -80 -25 0 -37 -4 -32 -9 14 -13
187 5 249 25 61 20 122 50 155 75 35 28 6 23 -69 -11z"/>
<path d="M6610 1364 c-31 -7 -428 -25 -750 -34 -387 -12 -1382 -13 -1741 -4
-163 5 -248 4 -252 -3 -4 -6 18 -13 56 -17 843 -84 1714 -83 2437 5 189 23
340 46 348 54 6 5 -72 5 -98 -1z"/>
<path d="M1440 1314 c-36 -7 -130 -36 -211 -64 -80 -28 -180 -56 -222 -62 -42
-7 -77 -16 -77 -19 0 -15 136 -21 288 -14 190 10 215 8 316 -15 196 -47 389
-31 549 46 37 17 53 43 20 29 -10 -3 -42 -11 -71 -17 -70 -14 -139 1 -262 59
-56 26 -126 50 -170 59 -89 16 -79 16 -160 -2z"/>
<path d="M3165 1269 c246 -50 645 -108 977 -144 507 -54 1128 -91 1128 -68 0
6 -10 21 -23 35 -17 18 -38 26 -81 32 -32 3 -73 13 -92 21 -25 10 -83 15 -207
16 -214 3 -485 20 -867 54 -908 81 -994 87 -835 54z"/>
<path d="M6880 1270 c0 -5 5 -10 10 -10 6 0 10 5 10 10 0 6 -4 10 -10 10 -5 0
-10 -4 -10 -10z"/>
<path d="M2706 1260 c14 -14 236 -88 434 -146 612 -179 1323 -314 1998 -379
386 -38 647 -48 1007 -42 574 11 906 58 1300 184 105 33 265 103 265 115 0 13
-176 1 -405 -28 -646 -83 -909 -100 -1375 -90 -414 9 -470 20 -140 29 265 7
530 29 577 49 l28 11 -40 8 c-22 5 -245 6 -495 2 -959 -12 -1783 61 -2890 257
-237 42 -281 47 -264 30z"/>
<path d="M2470 1217 c8 -9 74 -48 145 -87 72 -40 121 -69 111 -66 -11 4 -58
18 -105 31 -47 13 -140 42 -206 64 -66 21 -121 38 -123 36 -7 -6 408 -233 603
-330 1271 -627 3039 -980 4084 -814 230 36 457 97 661 176 109 42 454 212 447
220 -2 2 -51 -14 -108 -36 -438 -164 -781 -233 -1239 -249 -801 -28 -1644 111
-2770 458 -354 109 -636 207 -627 217 3 3 43 -7 89 -20 155 -47 412 -115 588
-155 541 -124 1341 -203 1900 -188 753 21 1272 104 1870 298 102 33 187 62
189 64 7 7 11 60 6 90 l-6 32 -122 -42 c-224 -78 -705 -191 -997 -235 -274
-41 -431 -53 -787 -58 -573 -9 -1025 29 -1668 138 -551 93 -832 157 -1432 328
-191 55 -377 107 -413 116 -36 9 -74 19 -85 22 -18 5 -18 3 -5 -10z"/>
<path d="M7114 1215 c-7 -18 3 -35 21 -35 18 0 26 15 19 34 -8 20 -33 21 -40
1z"/>
<path d="M6224 1179 c-8 -14 11 -33 25 -25 16 10 13 36 -3 36 -8 0 -18 -5 -22
-11z"/>
<path d="M6724 1166 c-8 -21 13 -46 32 -39 20 8 13 47 -9 51 -9 2 -20 -4 -23
-12z"/>
<path d="M7430 1170 c0 -5 5 -10 10 -10 6 0 10 5 10 10 0 6 -4 10 -10 10 -5 0
-10 -4 -10 -10z"/>
<path d="M5957 1133 c-3 -3 -3 -11 0 -18 5 -14 33 -9 33 5 0 10 -26 20 -33 13z"/>
<path d="M5434 1105 c-8 -19 3 -35 26 -35 19 0 34 25 24 41 -8 14 -44 10 -50
-6z"/>
<path d="M5713 1104 c-3 -8 -1 -20 5 -26 16 -16 42 -2 42 22 0 24 -38 28 -47
4z"/>
<path d="M7302 1103 c2 -10 10 -18 18 -18 8 0 16 8 18 18 2 12 -3 17 -18 17
-15 0 -20 -5 -18 -17z"/>
<path d="M6422 1098 c5 -15 28 -18 29 -3 0 6 -7 12 -17 13 -10 3 -15 -1 -12
-10z"/>
<path d="M6280 1049 c0 -5 5 -7 10 -4 6 3 10 8 10 11 0 2 -4 4 -10 4 -5 0 -10
-5 -10 -11z"/>
<path d="M6930 1040 c0 -5 5 -10 11 -10 5 0 7 5 4 10 -3 6 -8 10 -11 10 -2 0
-4 -4 -4 -10z"/>
<path d="M6577 1004 c-9 -10 2 -24 19 -24 8 0 14 7 14 15 0 15 -21 21 -33 9z"/>
<path d="M7925 631 c-7 -12 12 -24 25 -16 11 7 4 25 -10 25 -5 0 -11 -4 -15
-9z"/>
<path d="M7443 528 c2 -7 10 -13 17 -13 7 0 15 6 18 13 2 7 -5 12 -18 12 -13
0 -20 -5 -17 -12z"/>
<path d="M7850 530 c0 -5 5 -10 10 -10 6 0 10 5 10 10 0 6 -4 10 -10 10 -5 0
-10 -4 -10 -10z"/>
<path d="M7132 488 c-16 -16 -15 -33 3 -48 12 -10 18 -10 30 0 20 17 19 37 -3
49 -13 7 -23 6 -30 -1z"/>
<path d="M4830 434 c0 -17 22 -14 28 4 2 7 -3 12 -12 12 -9 0 -16 -7 -16 -16z"/>
<path d="M7650 440 c0 -5 5 -10 10 -10 6 0 10 5 10 10 0 6 -4 10 -10 10 -5 0
-10 -4 -10 -10z"/>
<path d="M5064 405 c-8 -21 2 -45 19 -45 8 0 20 7 27 15 10 12 10 18 0 30 -7
8 -19 15 -27 15 -7 0 -16 -7 -19 -15z"/>
<path d="M6850 405 c-10 -11 -10 -19 -2 -27 15 -15 44 -2 40 19 -4 23 -22 27
-38 8z"/>
<path d="M7367 394 c-14 -15 -6 -34 14 -34 14 0 19 5 17 17 -3 18 -20 27 -31
17z"/>
<path d="M5404 379 c-8 -14 11 -33 25 -25 16 10 13 36 -3 36 -8 0 -18 -5 -22
-11z"/>
<path d="M6200 370 c0 -5 7 -10 15 -10 8 0 15 5 15 10 0 6 -7 10 -15 10 -8 0
-15 -4 -15 -10z"/>
<path d="M5934 355 c-4 -9 -2 -21 4 -27 15 -15 44 -1 40 19 -4 23 -36 29 -44
8z"/>
<path d="M6530 344 c0 -17 22 -14 28 4 2 7 -3 12 -12 12 -9 0 -16 -7 -16 -16z"/>
<path d="M5732 329 c2 -6 8 -10 13 -10 5 0 11 4 13 10 2 6 -4 11 -13 11 -9 0
-15 -5 -13 -11z"/>
<path d="M7002 324 c3 -17 21 -21 26 -6 1 5 -4 12 -13 16 -11 4 -15 1 -13 -10z"/>
<path d="M6380 255 c0 -8 5 -15 10 -15 6 0 10 7 10 15 0 8 -4 15 -10 15 -5 0
-10 -7 -10 -15z"/>
<path d="M6055 250 c3 -5 8 -10 11 -10 2 0 4 5 4 10 0 6 -5 10 -11 10 -5 0 -7
-4 -4 -10z"/>
</g>
</svg>
